<svg viewBox="0 0 19 7" fill="none" xmlns="http://www.w3.org/2000/svg">
<path d="M0 1.75C0 0.783502 0.671573 0 1.5 0C2.32843 0 3 0.783502 3 1.75V5.25C3 6.2165 2.32843 7 1.5 7C0.671573 7 0 6.2165 0 5.25V1.75Z" fill="#FC5C42"/>
<path d="M8 1.75C8 0.783502 8.67157 0 9.5 0C10.3284 0 11 0.783502 11 1.75V5.25C11 6.2165 10.3284 7 9.5 7C8.67157 7 8 6.2165 8 5.25V1.75Z" fill="#383B65"/>
<path d="M16 1.75C16 0.783502 16.6716 0 17.5 0C18.3284 0 19 0.783502 19 1.75V5.25C19 6.2165 18.3284 7 17.5 7C16.6716 7 16 6.2165 16 5.25V1.75Z" fill="#525D49"/>
</svg>
